<?xml version="1.0" encoding="utf-8"?>
<!-- Generator: Adobe Illustrator 26.1.0, SVG Export Plug-In . SVG Version: 6.00 Build 0)  -->
<svg version="1.1" id="Layer_1" xmlns="http://www.w3.org/2000/svg" xmlns:xlink="http://www.w3.org/1999/xlink" x="0px" y="0px"
	 viewBox="0 0 451.89 451.89" style="enable-background:new 0 0 451.89 451.89;" xml:space="preserve">
<style type="text/css">
	.st0{fill:#5AFEAE;}
	.st1{fill:#292929;}
</style>
<circle class="st0" cx="225.94" cy="225.94" r="165.5"/>
<g>
	<path class="st1" d="M274.53,283.53c-5.83,2.87-12.24,4.36-18.74,4.33c-14,0-21.94-2.24-22.81-13.55v-0.76
		c0-0.45-0.05-0.85-0.05-1.37v-32.95l0.05-3.88v-23.23h-0.05v-9.87l0.05-3.91v-22.43l-34.72,4.58
		c23.48-4.54,36.96-23.12,36.96-41.64v-11.41h-39.01v53.34l-2.2,0.62v98.79c1.29,27.75,19.57,44.25,49.58,44.25
		c10.61,0,22.29-2.41,31.23-6.47l0.2-0.08v-34.65l-0.5,0.3V283.53z"/>
	<polygon class="st1" points="280.68,167.92 171.21,184.79 171.21,212.55 280.68,195.68 	"/>
	<polygon class="st1" points="280.68,208.53 171.21,225.4 171.21,251.92 280.68,235.04 	"/>
</g>
</svg>
